HIERARCHY
ROOT root
{
	OFFSET	0	13.1	24.9
	CHANNELS 6  Xposition Yposition Zposition Xrotation Yrotation Zrotation
	JOINT spine_1
	{
		OFFSET	0	9.99999	0
		CHANNELS 3  Xrotation Yrotation Zrotation
		JOINT spine_2
		{
			OFFSET	0	112	-10
			CHANNELS 3  Xrotation Yrotation Zrotation
			JOINT spine_3
			{
				OFFSET	0	206.5	19.3
				CHANNELS 3  Xrotation Yrotation Zrotation
				JOINT spine_4
				{
					OFFSET	0	110.4	14.6
					CHANNELS 3  Xrotation Yrotation Zrotation
					JOINT neck_1
					{
						OFFSET	0	71.8	-50.3
						CHANNELS 3  Xrotation Yrotation Zrotation
						JOINT neck_2
						{
							OFFSET	0	86.2	-25.8
							CHANNELS 3  Xrotation Yrotation Zrotation
							JOINT head_ee
							{
								OFFSET	0	179.8	-8.7
								CHANNELS 3  Xrotation Yrotation Zrotation
								End Site
								{
									OFFSET	1	0	0
								}
							}
						}
					}
					JOINT left_clavicle
					{
						OFFSET	-43.2	22.4	-70.8
						CHANNELS 3  Xrotation Yrotation Zrotation
						JOINT left_shoulder
						{
							OFFSET	-93.9	-5.79999	48.7
							CHANNELS 3  Xrotation Yrotation Zrotation
							JOINT left_elbow
							{
								OFFSET	-291.4	-30.8	15.2
								CHANNELS 3  Xrotation Yrotation Zrotation
								JOINT left_lowarm_twist
								{
									OFFSET	-110.7	-3.89999	13.6
									CHANNELS 3  Xrotation Yrotation Zrotation
									JOINT left_hand
									{
										OFFSET	-110.7	-3.89999	13.6
										CHANNELS 3  Xrotation Yrotation Zrotation
										JOINT left_ee
										{
											OFFSET	-80.8	-5.10001	12.1
											CHANNELS 3  Xrotation Yrotation Zrotation
											End Site
											{
												OFFSET	1	0	0
											}
										}
									}
								}
							}
						}
					}
					JOINT right_clavicle
					{
						OFFSET	43.2	22.4	-70.8
						CHANNELS 3  Xrotation Yrotation Zrotation
						JOINT right_shoulder
						{
							OFFSET	93.9	-5.79999	48.7
							CHANNELS 3  Xrotation Yrotation Zrotation
							JOINT right_elbow
							{
								OFFSET	291.4	-30.8	15.2
								CHANNELS 3  Xrotation Yrotation Zrotation
								JOINT right_lowarm_twist
								{
									OFFSET	110.7	-3.89999	13.6
									CHANNELS 3  Xrotation Yrotation Zrotation
									JOINT right_hand
									{
										OFFSET	110.7	-3.89999	13.6
										CHANNELS 3  Xrotation Yrotation Zrotation
										JOINT right_ee
										{
											OFFSET	80.8	-5.10001	12.1
											CHANNELS 3  Xrotation Yrotation Zrotation
											End Site
											{
												OFFSET	1	0	0
											}
										}
									}
								}
							}
						}
					}
				}
			}
		}
	}
	JOINT left_hip
	{
		OFFSET	-82.8	-127.5	0.300001
		CHANNELS 3  Xrotation Yrotation Zrotation
		JOINT left_knee
		{
			OFFSET	-28.2	-396.7	2.2
			CHANNELS 3  Xrotation Yrotation Zrotation
			JOINT left_ankle
			{
				OFFSET	-11.7	-411.3	35.4
				CHANNELS 3  Xrotation Yrotation Zrotation
				JOINT left_toes
				{
					OFFSET	0	-60	-88.6
					CHANNELS 3  Xrotation Yrotation Zrotation
					JOINT left_foot_ee
					{
						OFFSET	-22.5	-16.5	-42.2
						CHANNELS 3  Xrotation Yrotation Zrotation
						End Site
						{
							OFFSET	1	0	0
						}
					}
				}
			}
		}
	}
	JOINT right_hip
	{
		OFFSET	82.8	-127.5	0.300001
		CHANNELS 3  Xrotation Yrotation Zrotation
		JOINT right_knee
		{
			OFFSET	28.2	-396.7	2.2
			CHANNELS 3  Xrotation Yrotation Zrotation
			JOINT right_ankle
			{
				OFFSET	11.7	-411.3	35.4
				CHANNELS 3  Xrotation Yrotation Zrotation
				JOINT right_toes
				{
					OFFSET	0	-60	-88.6
					CHANNELS 3  Xrotation Yrotation Zrotation
					JOINT right_foot_ee
					{
						OFFSET	22.5	-16.5	-42.2
						CHANNELS 3  Xrotation Yrotation Zrotation
						End Site
						{
							OFFSET	1	0	0
						}
					}
				}
			}
		}
	}
}
MOTION
Frames: 13
Frame Time: 0.02
726.533 726.544 -494.22 66.0746 -87.7252 62.9684 -0.0164338 0.497965 2.5917 -0.0127584 0.332097 2.61811 0.00452138 -0.225418 2.62944 -0.00507471 0.192534 2.63205 -23.0355 4.3797 -6.91943 -23.1509 11.5991 -4.34847 -0.0 0.0 -0.0 2.4725 18.5681 5.9028 -27.3924 -31.9746 58.7781 0.636954 -17.5121 0.0981062 -81.041 -7.95376 5.26451 -0.546236 21.592 5.45145 -0.0 0.0 -0.0 12.6751 17.4826 -25.6454 -9.63024 17.6291 -60.803 1.05779 27.6539 -0.260354 -1.63704 0.0605487 -0.200274 -1.72401 -10.637 6.61625 0.0 0.0 0.0 25.9209 36.4278 -10.4516 -12.6851 0.311067 1.91789 14.7369 -8.25693 -2.13881 -29.0097 0.0 0.0 -0.0 0.0 -0.0 -3.98733 -8.21453 0.463038 -15.801 -0.322007 -2.39578 39.4391 9.65618 4.97006 -15.3189 0.0 0.0 0.0 0.0 0.0 
743.987 725.495 -491.449 82.9313 -87.4095 79.6961 -0.198221 0.579054 2.98775 -0.193339 0.387851 3.0185 -0.169853 -0.26428 3.03181 -0.182613 0.217627 3.03551 -22.9307 4.22533 -7.44582 -23.0215 11.5551 -4.92074 -0.0 0.0 -0.0 2.04221 18.9201 5.27174 -28.8301 -31.6792 59.006 0.543522 -15.0694 0.0718915 -80.7887 -7.92181 5.26843 -0.156118 20.4405 7.30659 -0.0 0.0 -0.0 12.5396 16.0411 -25.3986 -8.38046 18.9667 -61.75 1.16685 30.0278 -0.31297 -2.27651 0.0857535 -0.278031 -1.83611 -9.58793 7.83797 0.0 0.0 0.0 28.4887 36.9416 -11.4296 -14.4657 0.320501 2.19092 9.40267 -5.80212 -1.37857 -28.9162 0.0 0.0 -0.0 0.0 -0.0 -6.85068 -8.9837 0.035801 -13.0181 -0.313477 -1.96893 38.957 8.4555 4.9017 -15.343 0.0 0.0 0.0 0.0 0.0 
754.649 726.104 -485.382 88.0674 -86.7919 84.7844 -0.42324 0.738485 3.22374 -0.417616 0.531967 3.26414 -0.383213 -0.187954 3.30181 -0.398268 0.335575 3.2901 -23.3517 4.22689 -7.77163 -23.4396 11.6492 -5.19292 -0.0 0.0 -0.0 1.40358 19.1299 4.32871 -29.861 -31.4461 58.5135 0.491782 -13.6916 0.0590403 -80.3952 -7.87196 5.27425 0.179478 19.3374 8.90626 -0.0 0.0 -0.0 12.8688 16.1184 -26.1576 -6.9569 20.1057 -62.374 1.26146 31.9994 -0.361724 -2.72764 0.104057 -0.332717 -1.90299 -8.91543 8.5945 0.0 0.0 0.0 30.2776 37.1499 -12.069 -15.7354 0.322044 2.38572 4.20729 -3.88082 -0.622843 -29.1527 0.0 0.0 -0.0 0.0 -0.0 -8.86491 -9.71388 -0.936221 -10.8997 -0.293094 -1.64455 38.7424 7.23904 4.85898 -15.5076 0.0 0.0 0.0 0.0 0.0 
764.371 725.44 -481.373 91.3925 -86.4424 88.2212 -0.50256 0.825441 3.35025 -0.496524 0.610709 3.39592 -0.455669 -0.14389 3.44733 -0.472025 0.402031 3.42686 -23.6617 4.22741 -7.9653 -23.7481 11.6934 -5.35122 -0.0 0.0 -0.0 0.954727 19.2846 3.67183 -30.6335 -31.36 58.4516 0.458594 -12.7991 0.0514361 -80.1082 -7.83557 5.27827 0.435718 18.4804 10.1527 -0.0 0.0 -0.0 12.8971 16.0645 -26.2255 -5.70381 20.8813 -62.9643 1.35077 33.7859 -0.41023 -3.06381 0.117976 -0.373374 -1.95574 -8.33723 9.21705 0.0 0.0 0.0 32.4314 36.8585 -13.2879 -15.8562 0.321966 2.40426 0.51895 -2.61704 -0.0772718 -29.3531 0.0 0.0 -0.0 0.0 -0.0 -10.3968 -10.0921 -1.51546 -9.60504 -0.274737 -1.44675 38.6616 6.52346 4.83901 -15.5883 0.0 0.0 0.0 0.0 0.0 
771.978 727.412 -476.093 90.9418 -86.2627 87.5436 -0.471752 0.866209 3.43655 -0.465415 0.645913 3.48463 -0.421258 -0.126684 3.54165 -0.438497 0.43389 3.51729 -24.2535 4.35574 -7.5987 -24.3656 11.6969 -4.90418 -0.0 0.0 -0.0 0.546158 19.7767 3.1117 -31.1705 -31.375 58.9708 0.430256 -12.032 0.0453434 -79.9203 -7.81173 5.28081 0.728141 17.9087 11.7514 -0.0 0.0 -0.0 12.8497 16.0283 -26.117 -3.53087 21.5535 -64.1098 1.48304 36.3007 -0.4862 -3.47485 0.135319 -0.422976 -2.06 -7.84806 10.1386 0.0 0.0 0.0 33.769 35.7636 -13.3277 -16.2873 0.321369 2.4704 -2.05366 -2.81125 0.307914 -29.7425 0.0 0.0 -0.0 0.0 -0.0 -11.7579 -10.4311 -1.93311 -8.13142 -0.24841 -1.22216 38.1232 5.96733 4.78136 -15.7909 0.0 0.0 0.0 0.0 0.0 
780.397 722.81 -476.926 89.1275 -86.4668 85.9545 -0.472893 0.875067 3.49508 -0.466333 0.651036 3.5436 -0.421037 -0.134485 3.60032 -0.438858 0.435435 3.57645 -24.4875 4.55605 -7.49087 -24.6228 12.0043 -4.68547 -0.0 0.0 -0.0 -0.134265 20.0004 2.135 -31.1863 -31.3732 59.6983 0.401084 -11.2377 0.03946 -78.7721 -7.66586 5.29459 1.2211 15.9351 14.1672 -0.0 0.0 -0.0 12.5313 15.7129 -25.3923 -2.34468 20.4191 -64.052 1.67797 39.7307 -0.606307 -4.12868 0.16364 -0.50162 -2.18924 -5.6229 12.08 0.0 0.0 0.0 34.6478 35.0904 -12.9249 -13.3147 0.315373 2.0144 -3.86352 -4.64994 0.585647 -30.7681 0.0 0.0 -0.0 0.0 -0.0 -12.6939 -10.41 -2.28046 -6.50298 -0.212606 -0.974837 37.7373 5.57634 4.7401 -15.9962 0.0 0.0 0.0 0.0 0.0 
787.986 722.056 -476.279 86.2039 -86.6937 83.0284 -0.458965 0.863374 3.5747 -0.45208 0.63431 3.62231 -0.406799 -0.167052 3.67356 -0.425388 0.414819 3.65391 -24.7168 4.70529 -7.39337 -24.8708 12.2189 -4.50134 -0.0 0.0 -0.0 -0.396014 20.2897 1.78651 -31.3083 -31.2414 60.1508 0.374444 -10.5085 0.0344347 -77.9794 -7.56498 5.30239 1.56521 14.6284 15.9404 -0.0 0.0 -0.0 12.3898 15.5255 -25.073 -1.50171 19.757 -64.1524 1.84381 42.4034 -0.715281 -4.6006 0.18464 -0.558183 -2.26021 -4.01997 13.3396 0.0 0.0 0.0 35.5964 34.5119 -12.8658 -11.4696 0.299756 1.73173 -5.30229 -5.97008 0.81069 -31.4553 0.0 0.0 -0.0 0.0 -0.0 -13.5232 -10.4787 -2.41988 -5.1538 -0.177625 -0.770746 37.3842 5.31905 4.70382 -16.1757 0.0 0.0 0.0 0.0 0.0 
799.237 718.421 -473.827 81.4859 -86.5738 78.5681 -0.514179 0.851576 3.58981 -0.507225 0.621576 3.63664 -0.462464 -0.186208 3.68461 -0.481185 0.397644 3.66784 -24.9762 4.6583 -7.30072 -25.1302 12.0542 -4.42034 -0.0 0.0 -0.0 -0.630387 20.4846 1.46973 -31.4177 -30.9849 60.3033 0.32766 -9.21965 0.0264195 -77.0714 -7.44927 5.30958 1.95682 12.5676 17.8283 -0.0 0.0 -0.0 12.4498 15.3592 -25.2173 -0.161257 19.4338 -63.751 2.10992 46.2602 -0.901351 -4.91814 0.199032 -0.596146 -2.31287 -2.83527 14.275 0.0 0.0 0.0 36.6591 33.5877 -13.5514 -8.90684 0.262984 1.34025 -5.66259 -8.47066 0.877168 -31.9842 0.0 0.0 -0.0 0.0 -0.0 -13.9529 -10.8977 -2.72916 -6.47069 -0.211825 -0.969942 37.905 5.22961 4.75 -16.092 0.0 0.0 0.0 0.0 0.0 
805.591 717.244 -476.971 89.4293 -86.8692 86.6795 -0.572531 0.80105 3.60179 -0.565495 0.570392 3.64538 -0.523834 -0.242124 3.68174 -0.542584 0.341974 3.67382 -25.2222 4.61133 -7.28212 -25.3745 11.9229 -4.41005 -0.0 0.0 -0.0 -0.686183 20.6981 1.41651 -31.1173 -30.8881 60.8021 0.302054 -8.51015 0.0224734 -76.3405 -7.35604 5.31403 2.25745 11.0368 19.3385 -0.0 0.0 -0.0 12.3588 15.1876 -25.0139 0.892755 19.2027 -63.3231 2.35494 49.3891 -1.083 -5.14012 0.209218 -0.622637 -2.35279 -1.92447 14.9916 0.0 0.0 0.0 36.3498 33.1567 -13.5559 -7.26343 0.230201 1.09021 -5.95219 -10.228 0.931761 -32.2875 0.0 0.0 -0.0 0.0 -0.0 -13.5869 -10.9102 -2.77567 -7.2377 -0.22963 -1.0863 38.1976 5.28782 4.77732 -16.0438 0.0 0.0 0.0 0.0 0.0 
811.359 714.981 -481.244 92.5076 -86.9703 90.3439 -0.596441 0.875391 3.485 -0.589921 0.652 3.53356 -0.544462 -0.139104 3.59044 -0.562191 0.429316 3.56743 -25.5979 4.67473 -6.97541 -25.7659 11.8683 -4.06419 -0.0 0.0 -0.0 -0.564274 20.6964 1.59278 -30.1765 -30.1131 61.7957 0.283421 -7.99218 0.0197994 -75.6536 -7.26835 5.31712 2.59919 9.51828 21.1737 -0.0 0.0 -0.0 12.4028 15.0325 -25.1203 2.21369 18.5218 -62.8475 2.5504 51.6292 -1.23387 -5.23981 0.213826 -0.634522 -2.40338 -1.52231 15.536 0.0 0.0 0.0 37.3006 33.1213 -13.2501 -5.5662 0.188827 0.833043 -6.06905 -11.9016 0.96025 -32.5142 0.0 0.0 -0.0 0.0 -0.0 -13.9791 -10.9312 -2.93208 -7.47457 -0.234814 -1.12228 38.5453 5.41186 4.81041 -16.008 0.0 0.0 0.0 0.0 0.0 
819.971 716.417 -486.246 101.332 -87.2949 99.2702 -0.627853 0.897988 3.38058 -0.621754 0.681184 3.43079 -0.575885 -0.0899294 3.49653 -0.592645 0.463072 3.46693 -25.7952 4.69931 -6.97332 -25.9676 11.8891 -4.03544 -0.0 0.0 -0.0 -0.539228 21.0015 1.66761 -29.6636 -29.129 62.2741 0.26863 -7.58008 0.0177955 -75.222 -7.21324 5.31852 2.88026 8.01598 22.6295 -0.0 0.0 -0.0 12.3033 14.8705 -24.8969 2.826 18.4243 -62.3198 2.7564 53.7725 -1.39777 -5.20949 0.212423 -0.630908 -2.41633 -0.831022 15.9614 0.0 0.0 0.0 37.315 33.6392 -12.2226 -3.16638 0.117358 0.471706 -6.17766 -14.1818 0.993219 -32.6046 0.0 0.0 -0.0 0.0 -0.0 -14.384 -10.9853 -2.88035 -5.68597 -0.191997 -0.85115 38.6749 4.73502 4.81181 -15.9785 0.0 0.0 0.0 0.0 0.0 
833.156 714.649 -490.72 107.292 -87.2456 105.736 -0.666369 0.928575 3.41876 -0.660146 0.709284 3.47084 -0.611878 -0.0735052 3.54172 -0.62905 0.486415 3.50897 -26.1107 4.7043 -6.89151 -26.2881 11.8245 -3.93471 -0.0 0.0 -0.0 -0.504898 21.0374 1.72151 -29.4281 -28.9994 62.743 0.252329 -7.12499 0.0157094 -74.9349 -7.17656 5.31921 2.93653 7.96006 23.0091 -0.0 0.0 -0.0 12.3125 14.6889 -24.9239 3.61 18.8585 -62.3832 2.85712 54.7465 -1.47952 -5.34962 0.218926 -0.647604 -2.43241 -0.48703 16.2399 0.0 0.0 0.0 38.1281 33.3075 -12.4794 -3.58485 0.13091 0.534499 -6.25864 -13.9395 1.00462 -32.7546 0.0 0.0 -0.0 0.0 -0.0 -14.4735 -10.9894 -2.889 -7.38833 -0.232944 -1.10918 38.6367 5.41205 4.81857 -15.9938 0.0 0.0 0.0 0.0 0.0 
847.291 708.697 -496.457 101.673 -87.6951 100.377 -0.580814 0.715968 3.30939 -0.574862 0.504053 3.34819 -0.540887 -0.242789 3.37717 -0.556681 0.293307 3.37316 -26.6839 4.83381 -6.78008 -26.8821 11.955 -3.72092 -0.0 0.0 -0.0 -0.715671 21.5218 1.48199 -29.0701 -28.7166 63.1978 0.254811 -7.19433 0.0160187 -74.6797 -7.14395 5.31968 2.8589 6.92651 22.0966 -0.0 0.0 -0.0 12.253 14.7793 -24.7844 4.43445 18.5107 -61.9036 3.01883 56.2179 -1.61278 -6.32152 0.265155 -0.76296 -2.70413 -0.500755 18.1333 0.0 0.0 0.0 38.3389 33.3313 -12.3518 -2.60854 0.0985798 0.388154 -7.114 -18.1756 1.18333 -32.8059 0.0 0.0 -0.0 0.0 -0.0 -14.8935 -10.7521 -2.80993 -7.76788 -0.241026 -1.16686 38.8937 4.47042 4.82743 -15.7088 0.0 0.0 0.0 0.0 0.0 
